<?xml version="1.0" encoding="UTF-8"?>
<svg id="Layer_1" data-name="Layer 1" xmlns="http://www.w3.org/2000/svg" viewBox="0 0 250 250">
  <defs>
    <style>
      .cls-1 {
        fill: #fff;
      }
    </style>
  </defs>
  <rect width="250" height="250"/>
  <path class="cls-1" d="M158.63,201.04h52.55c2.8,0,5.07,2.27,5.07,5.07s-2.27,5.07-5.07,5.07H38.82c-2.8,0-5.07-2.27-5.07-5.07s2.27-5.07,5.07-5.07h86.17c13.36-.02,26.25-5.24,35.85-14.85,19.8-19.8,19.8-51.9,0-71.69-3.86-3.86-8.18-6.96-12.79-9.32-.19-.08-.38-.18-.56-.28-16.89-8.36-37.47-6.73-52.92,4.89h15.22c2.8,0,5.07,2.27,5.07,5.07s-2.27,5.07-5.07,5.07h-30.42c-2.8,0-5.07-2.27-5.07-5.07v-30.42c0-2.8,2.27-5.07,5.07-5.07s5.07,2.27,5.07,5.07v20.56c14.84-13.3,34.65-18.03,53.02-14.2-1.48-3.77-2.33-7.72-2.33-11.42,0-16.8,13.62-30.42,30.42-30.42h2.97l-1.48-1.48c-1.98-1.98-1.98-5.19,0-7.17,1.98-1.98,5.19-1.98,7.17,0l10.14,10.14c1.98,1.98,1.98,5.19,0,7.17l-10.14,10.14c-1.98,1.98-5.19,1.98-7.17,0-1.98-1.98-1.98-5.19,0-7.17l1.48-1.48h-2.97c-11.2,0-20.28,9.08-20.28,20.28,0,5.69,3.35,12.9,7.62,16.9,5.44,2.81,10.55,6.5,15.12,11.06,23.76,23.76,23.76,62.27,0,86.03-2.9,2.9-6.04,5.46-9.38,7.68h0Z"/>
</svg>