<?xml version="1.0" encoding="UTF-8"?>
<svg id="Layer_1" data-name="Layer 1" xmlns="http://www.w3.org/2000/svg" viewBox="0 0 250 250">
  <defs>
    <style>
      .cls-1 {
        fill: #f90;
        fill-rule: evenodd;
      }

      .cls-2 {
        fill: #252f3e;
      }
    </style>
  </defs>
  <rect width="250" height="250"/>
  <g>
    <path class="cls-2" d="M80.03,108.14c0,2.54.27,4.59.75,6.1.55,1.51,1.23,3.15,2.19,4.94.34.55.48,1.1.48,1.58,0,.69-.41,1.37-1.3,2.06l-4.32,2.88c-.62.41-1.23.62-1.78.62-.69,0-1.37-.34-2.06-.96-.96-1.03-1.78-2.12-2.47-3.22-.69-1.17-1.37-2.47-2.12-4.04-5.35,6.31-12.06,9.46-20.15,9.46-5.76,0-10.35-1.65-13.71-4.94-3.36-3.29-5.07-7.68-5.07-13.16,0-5.83,2.06-10.56,6.24-14.12,4.18-3.56,9.73-5.35,16.79-5.35,2.33,0,4.73.21,7.27.55s5.14.89,7.88,1.51v-5c0-5.21-1.1-8.84-3.22-10.97-2.19-2.12-5.89-3.15-11.17-3.15-2.4,0-4.87.27-7.4.89s-5,1.37-7.4,2.33c-1.1.48-1.92.75-2.4.89-.48.14-.82.21-1.1.21-.96,0-1.44-.69-1.44-2.12v-3.36c0-1.1.14-1.92.48-2.4s.96-.96,1.92-1.44c2.4-1.23,5.28-2.26,8.64-3.08,3.36-.89,6.92-1.3,10.69-1.3,8.16,0,14.12,1.85,17.96,5.55,3.77,3.7,5.69,9.32,5.69,16.86v22.21h.14ZM52.2,118.56c2.26,0,4.59-.41,7.06-1.23,2.47-.82,4.66-2.33,6.51-4.39,1.1-1.3,1.92-2.74,2.33-4.39s.69-3.63.69-5.96v-2.88c-1.99-.48-4.11-.89-6.31-1.17s-4.32-.41-6.44-.41c-4.59,0-7.95.89-10.21,2.74-2.26,1.85-3.36,4.46-3.36,7.88,0,3.22.82,5.62,2.54,7.27,1.65,1.71,4.04,2.54,7.2,2.54ZM107.24,125.96c-1.23,0-2.06-.21-2.6-.69-.55-.41-1.03-1.37-1.44-2.67l-16.11-52.98c-.41-1.37-.62-2.26-.62-2.74,0-1.1.55-1.71,1.65-1.71h6.72c1.3,0,2.19.21,2.67.69.55.41.96,1.37,1.37,2.67l11.52,45.38,10.69-45.38c.34-1.37.75-2.26,1.3-2.67.55-.41,1.51-.69,2.74-.69h5.48c1.3,0,2.19.21,2.74.69.55.41,1.03,1.37,1.3,2.67l10.83,45.92,11.86-45.92c.41-1.37.89-2.26,1.37-2.67.55-.41,1.44-.69,2.67-.69h6.37c1.1,0,1.71.55,1.71,1.71,0,.34-.07.69-.14,1.1-.07.41-.21.96-.48,1.71l-16.52,52.98c-.41,1.37-.89,2.26-1.44,2.67s-1.44.69-2.6.69h-5.89c-1.3,0-2.19-.21-2.74-.69s-1.03-1.37-1.3-2.74l-10.62-44.21-10.56,44.14c-.34,1.37-.75,2.26-1.3,2.74-.55.48-1.51.69-2.74.69h-5.89ZM195.32,127.81c-3.56,0-7.13-.41-10.56-1.23-3.43-.82-6.1-1.71-7.88-2.74-1.1-.62-1.85-1.3-2.12-1.92-.27-.62-.41-1.3-.41-1.92v-3.5c0-1.44.55-2.12,1.58-2.12.41,0,.82.07,1.23.21.41.14,1.03.41,1.71.69,2.33,1.03,4.87,1.85,7.54,2.4,2.74.55,5.41.82,8.16.82,4.32,0,7.68-.75,10.01-2.26,2.33-1.51,3.56-3.7,3.56-6.51,0-1.92-.62-3.5-1.85-4.8-1.23-1.3-3.56-2.47-6.92-3.56l-9.94-3.08c-5-1.58-8.7-3.91-10.97-6.99-2.26-3.02-3.43-6.37-3.43-9.94,0-2.88.62-5.41,1.85-7.61,1.23-2.19,2.88-4.11,4.94-5.62,2.06-1.58,4.39-2.74,7.13-3.56,2.74-.82,5.62-1.17,8.64-1.17,1.51,0,3.08.07,4.59.27,1.58.21,3.02.48,4.46.75,1.37.34,2.67.69,3.91,1.1,1.23.41,2.19.82,2.88,1.23.96.55,1.65,1.1,2.06,1.71.41.55.62,1.3.62,2.26v3.22c0,1.44-.55,2.19-1.58,2.19-.55,0-1.44-.27-2.6-.82-3.91-1.78-8.29-2.67-13.16-2.67-3.91,0-6.99.62-9.12,1.92-2.12,1.3-3.22,3.29-3.22,6.1,0,1.92.69,3.56,2.06,4.87,1.37,1.3,3.91,2.6,7.54,3.77l9.73,3.08c4.94,1.58,8.5,3.77,10.62,6.58,2.12,2.81,3.15,6.03,3.15,9.6,0,2.95-.62,5.62-1.78,7.95-1.23,2.33-2.88,4.39-5,6.03-2.12,1.71-4.66,2.95-7.61,3.84-3.08.96-6.31,1.44-9.8,1.44Z"/>
    <g>
      <path class="cls-1" d="M208.28,161.12c-22.55,16.66-55.31,25.5-83.49,25.5-39.48,0-75.05-14.6-101.92-38.86-2.12-1.92-.21-4.52,2.33-3.02,29.06,16.86,64.91,27.07,101.99,27.07,25.02,0,52.5-5.21,77.8-15.9,3.77-1.71,6.99,2.47,3.29,5.21Z"/>
      <path class="cls-1" d="M217.67,150.43c-2.88-3.7-19.05-1.78-26.39-.89-2.19.27-2.54-1.65-.55-3.08,12.89-9.05,34.07-6.44,36.53-3.43,2.47,3.08-.69,24.26-12.75,34.41-1.85,1.58-3.63.75-2.81-1.3,2.74-6.79,8.84-22.07,5.96-25.7Z"/>
    </g>
  </g>
</svg>