<?xml version="1.0" encoding="UTF-8"?>
<svg id="Layer_1" data-name="Layer 1" xmlns="http://www.w3.org/2000/svg" xmlns:xlink="http://www.w3.org/1999/xlink" viewBox="0 0 250 250">
  <defs>
    <style>
      .cls-1 {
        fill: url(#linear-gradient);
      }

      .cls-2 {
        fill: #fff;
      }

      .cls-3 {
        fill: #2684ff;
      }
    </style>
    <linearGradient id="linear-gradient" x1="3.58" y1="-726.54" x2="3.99" y2="-726.54" gradientTransform="translate(77153.87 94221.56) rotate(141) scale(167.31 -167.31)" gradientUnits="userSpaceOnUse">
      <stop offset="0" stop-color="#0052cc"/>
      <stop offset="1" stop-color="#2684ff"/>
    </linearGradient>
  </defs>
  <rect width="250" height="250"/>
  <g>
    <rect class="cls-2" x="21.05" y="21.05" width="207.89" height="207.89" rx="76.8" ry="76.8"/>
    <path class="cls-3" d="M192.4,73.84c.38-2.21-1.1-4.31-3.31-4.69-.23-.04-.47-.06-.71-.06H61.86c-2.24-.03-4.09,1.76-4.12,4,0,.25.02.5.06.75l18.47,113.28c.32,1.97,2.02,3.42,4.02,3.41h89.73c2.03,0,3.74-1.42,4.06-3.41l18.31-113.28ZM139.21,149.69h-28.14l-7.59-39.79h42.55l-6.82,39.79Z"/>
    <path class="cls-1" d="M186.53,110.09h-40.44l-6.71,39.59h-28.13v40.89h58.76c2.16,0,3.68-1.51,3.89-3.46l12.55-77.02h.07Z"/>
  </g>
</svg>