<?xml version="1.0" encoding="UTF-8"?>
<svg id="Layer_1" data-name="Layer 1" xmlns="http://www.w3.org/2000/svg" xmlns:xlink="http://www.w3.org/1999/xlink" viewBox="0 0 250 250">
  <defs>
    <style>
      .cls-1 {
        fill: url(#linear-gradient);
      }

      .cls-2 {
        fill: url(#linear-gradient-2);
        stroke: #fff;
      }
    </style>
    <linearGradient id="linear-gradient" x1="232.27" y1="-1839.13" x2="416.6" y2="-1985.45" gradientTransform="translate(-191.5 -1781) scale(1 -1)" gradientUnits="userSpaceOnUse">
      <stop offset="0" stop-color="#9013fe"/>
      <stop offset="1" stop-color="#6610f2"/>
    </linearGradient>
    <linearGradient id="linear-gradient-2" x1="288.96" y1="-1868.23" x2="330.16" y2="-1937.91" gradientTransform="translate(-191.5 -1781) scale(1 -1)" gradientUnits="userSpaceOnUse">
      <stop offset="0" stop-color="#fff"/>
      <stop offset="1" stop-color="#f1e5fc"/>
    </linearGradient>
  </defs>
  <rect width="250" height="250"/>
  <g>
    <path class="cls-1" d="M42.8,62.92c-.4-11.43,8.51-21.97,20.54-21.97h123.34c12.04,0,20.94,10.54,20.54,21.97-.38,10.98.11,25.2,3.69,36.8,3.59,11.63,9.65,18.98,19.56,19.93v10.71c-9.92.94-15.97,8.3-19.56,19.93-3.58,11.6-4.08,25.82-3.69,36.8.4,11.43-8.51,21.97-20.54,21.97H63.34c-12.04,0-20.94-10.54-20.54-21.97.38-10.98-.11-25.2-3.69-36.8-3.59-11.63-9.66-18.98-19.58-19.93v-10.71c9.92-.94,15.99-8.3,19.58-19.93,3.58-11.6,4.08-25.82,3.69-36.8Z"/>
    <path class="cls-2" d="M129.57,169.69c19.49,0,31.23-9.54,31.23-25.28,0-11.9-8.38-20.51-20.82-21.87v-.5c9.14-1.49,16.31-9.98,16.31-19.45,0-13.51-10.66-22.31-26.91-22.31h-36.56v89.41h36.75ZM107.04,91.62h18.92c10.28,0,16.12,4.58,16.12,12.89,0,8.86-6.79,13.82-19.11,13.82h-15.93v-26.7ZM107.04,158.35v-29.43h18.79c13.46,0,20.44,4.96,20.44,14.62s-6.79,14.81-19.61,14.81h-19.61Z"/>
  </g>
</svg>