<?xml version="1.0" encoding="UTF-8"?>
<svg id="Layer_1" data-name="Layer 1" xmlns="http://www.w3.org/2000/svg" viewBox="0 0 250 250">
  <defs>
    <style>
      .cls-1 {
        fill: #fff;
      }
    </style>
  </defs>
  <rect width="250" height="250"/>
  <path class="cls-1" d="M114.85,140.33c1.72-16.48,12.07-29.89,24.14-29.89s18.58,13.41,16.86,29.89-11.69,30.08-22.99,30.08-20.5-10.35-18.01-30.08M125,215.05c-26.82.04-52.26-11.91-69.36-32.57,14.94,4.79,31.61.57,44.64-12.26,1.38-1.38,2.66-2.85,3.83-4.41,5.94,12.84,17.43,19.35,28.93,19.35,19.54,0,36.02-20.12,37.93-45.02,1.92-24.91-12.07-44.64-30.65-44.64-6.74-.09-13.38,1.7-19.16,5.17l5.75-33.53c.57-2.68-.06-5.48-1.72-7.66-1.72-2.68-3.26-3.83-5.56-3.83h-26.82c-1.59.08-2.88,1.3-3.07,2.87-.71,3.16-1.22,6.36-1.53,9.58-.19,2.11,1.34,2.87,3.07,2.87h19.54c-3.07,19.16-9.2,56.33-10.92,65.72-1.81,8.89-6.13,17.07-12.45,23.57-10.73,10.73-30.46,13.22-42.15,1.53-4.02-4.22-10.35-14.56-10.35-36.79,0-49.73,40.32-90.05,90.05-90.05s90.05,40.32,90.05,90.05-40.32,90.05-90.05,90.05M125,19.62c-58.2,0-105.38,47.18-105.38,105.38s47.18,105.38,105.38,105.38,105.38-47.18,105.38-105.38c0-27.95-11.1-54.75-30.86-74.51-19.76-19.76-46.56-30.86-74.51-30.86"/>
</svg>