<?xml version="1.0" encoding="UTF-8"?>
<svg id="Layer_1" data-name="Layer 1" xmlns="http://www.w3.org/2000/svg" viewBox="0 0 250 250">
  <defs>
    <style>
      .cls-1 {
        stroke: #066da5;
        stroke-width: 38px;
      }

      .cls-2 {
        fill: #fff;
      }

      .cls-3 {
        fill: #066da5;
      }
    </style>
  </defs>
  <rect width="250" height="250"/>
  <g>
    <rect class="cls-2" x="17.34" y="17.34" width="215.33" height="215.33" rx="76.8" ry="76.8"/>
    <path class="cls-1" d="M141.82,112.38h17.66M120.79,112.38h17.66M100.19,112.38h17.66M79.58,112.38h17.24M58.55,112.38h17.66M79.58,93.04h17.24M100.19,93.04h17.66M120.79,93.04h17.66M120.79,73.69h17.66"/>
    <path class="cls-3" d="M215.84,113.22s-7.57-7.15-23.13-4.63c-1.68-12.2-14.72-19.35-14.72-19.35,0,0-12.2,14.72-3.36,31.12-2.52,1.26-6.73,2.94-13.04,2.94H45.94c-2.1,7.99-2.1,60.98,55.93,60.98,41.64,0,72.76-19.35,87.48-54.67,21.87,1.68,26.5-16.4,26.5-16.4"/>
  </g>
</svg>