<?xml version="1.0" encoding="UTF-8"?>
<svg id="Layer_1" data-name="Layer 1" xmlns="http://www.w3.org/2000/svg" xmlns:xlink="http://www.w3.org/1999/xlink" viewBox="0 0 250 250">
  <defs>
    <style>
      .cls-1 {
        fill: none;
      }

      .cls-2 {
        fill: #fff;
      }

      .cls-3 {
        clip-path: url(#clippath);
      }
    </style>
    <clipPath id="clippath">
      <rect class="cls-1" x="16.5" y="16.5" width="217" height="217"/>
    </clipPath>
  </defs>
  <rect width="250" height="250"/>
  <g class="cls-3">
    <path class="cls-2" d="M229.41,115.34L134.66,20.6c-5.46-5.46-14.31-5.46-19.76,0,0,0,0,0,0,0l-19.67,19.68,24.95,24.95c5.98-2.03,12.6-.49,17.07,3.98,4.5,4.5,6.03,11.17,3.94,17.19l24.06,24.05c6.01-2.09,12.69-.55,17.19,3.95,6.49,6.49,6.49,17.02,0,23.51h0c-6.5,6.5-17.03,6.5-23.53,0-4.74-4.75-6.17-11.88-3.61-18.09l-22.44-22.43v59.03c8.23,4.07,11.61,14.04,7.54,22.27-.8,1.63-1.87,3.11-3.15,4.39-6.49,6.49-17.02,6.49-23.51,0h0c-6.49-6.49-6.5-17.02,0-23.51,0,0,0,0,0,0,1.56-1.56,3.41-2.79,5.44-3.63v-59.58c-8.5-3.5-12.55-13.23-9.05-21.73.01-.02.02-.05.03-.07l-24.6-24.61L20.59,114.89c-5.45,5.46-5.45,14.31,0,19.77l94.75,94.75c5.46,5.45,14.3,5.45,19.77,0l94.31-94.31c5.45-5.46,5.45-14.31,0-19.77"/>
  </g>
</svg>