<?xml version="1.0" encoding="UTF-8"?>
<svg id="Layer_1" data-name="Layer 1" xmlns="http://www.w3.org/2000/svg" viewBox="0 0 250 250">
  <defs>
    <style>
      .cls-1 {
        fill: #d7bff3;
      }
    </style>
  </defs>
  <rect width="250" height="250"/>
  <g id="Page-1">
    <g id="main">
      <g id="nav">
        <path id="logo" class="cls-1" d="M187.24,38.25H62.76c-8.67,0-15.61,6.94-15.61,15.61v142.27c0,8.68,6.94,15.62,15.61,15.62h124.49c8.68,0,15.61-6.94,15.61-15.62V53.86c0-8.67-6.94-15.61-15.61-15.61ZM194.18,196.13c0,3.9-3.04,6.94-6.94,6.94H62.76c-3.9,0-6.94-3.04-6.94-6.94V53.86c0-3.9,3.04-6.94,6.94-6.94h124.49c3.9,0,6.94,3.04,6.94,6.94v142.27ZM86.18,185.72l19.52-17.35-19.52-17.35v34.7ZM156.45,115.46c-3.47-3.47-9.98-7.81-20.82-7.81-11.71,0-23.86,3.04-32.53,6.07v-49.45h-17.35v75.04l12.15-5.64s19.95-9.11,37.3-9.11c8.68,0,10.84,4.77,10.84,9.11v52.05h17.35v-52.05c.43-1.3.43-10.84-6.94-18.22ZM133.46,92.47h17.35c7.81-9.11,11.71-18.22,13.01-28.19h-17.35c-1.74,9.98-6.07,19.09-13.01,28.19Z"/>
      </g>
    </g>
  </g>
</svg>