<?xml version="1.0" encoding="UTF-8"?>
<svg id="Layer_1" data-name="Layer 1" xmlns="http://www.w3.org/2000/svg" viewBox="0 0 250 250">
  <defs>
    <style>
      .cls-1 {
        fill: #f7df1e;
      }
    </style>
  </defs>
  <rect width="250" height="250"/>
  <g>
    <path class="cls-1" d="M23.58,23.58h202.83v202.83H23.58V23.58Z"/>
    <path d="M76.92,193.08l15.52-9.39c2.99,5.31,5.72,9.8,12.25,9.8s10.21-2.45,10.21-11.98v-64.81h19.06v65.08c0,19.74-11.57,28.73-28.46,28.73-15.25,0-24.1-7.9-28.59-17.43M144.32,191.04l15.52-8.99c4.09,6.67,9.4,11.57,18.79,11.57,7.9,0,12.93-3.95,12.93-9.4,0-6.53-5.17-8.85-13.89-12.66l-4.76-2.04c-13.75-5.85-22.87-13.21-22.87-28.73,0-14.3,10.89-25.19,27.91-25.19,12.12,0,20.83,4.22,27.09,15.25l-14.84,9.53c-3.27-5.85-6.81-8.17-12.25-8.17s-9.12,3.54-9.12,8.17c0,5.72,3.54,8.03,11.71,11.57l4.76,2.04c16.2,6.94,25.32,14.02,25.32,29.95,0,17.16-13.48,26.55-31.59,26.55s-29.14-8.44-34.72-19.47"/>
  </g>
</svg>