<?xml version="1.0" encoding="UTF-8"?>
<svg id="Layer_1" data-name="Layer 1" xmlns="http://www.w3.org/2000/svg" viewBox="0 0 250 250">
  <defs>
    <style>
      .cls-1 {
        fill: #fff;
      }
    </style>
  </defs>
  <rect width="250" height="250"/>
  <path class="cls-1" d="M126.79,232.47c-1.8-.03-3.44-1.05-4.26-2.66-.8-1.56-.63-3.44.44-4.82l50.49-69.53-88.47,36.18c-.6.27-1.24.41-1.9.41-2.09-.02-3.92-1.4-4.52-3.4-.59-1.99.23-4.13,2-5.21l77.75-45.91-136.92-7.87c-2.58-.17-4.54-2.4-4.37-4.99.15-2.35,2.02-4.22,4.37-4.37l137-7.87-77.8-45.9c-1.75-1.09-2.54-3.23-1.94-5.2.59-2,2.42-3.38,4.51-3.4.65,0,1.3.13,1.9.4l88.42,36.2L122.99,25.01c-1.06-1.39-1.23-3.27-.44-4.83.82-1.61,2.47-2.64,4.28-2.65,1.24,0,2.42.52,3.28,1.41l100.65,100.64c2.98,2.99,2.98,7.81,0,10.8l-100.69,100.68c-.86.89-2.04,1.4-3.28,1.41Z"/>
</svg>