<?xml version="1.0" encoding="UTF-8"?>
<svg id="Layer_1" data-name="Layer 1" xmlns="http://www.w3.org/2000/svg" viewBox="0 0 250 250">
  <defs>
    <style>
      .cls-1 {
        fill: #fff;
      }
    </style>
  </defs>
  <rect width="250" height="250"/>
  <path class="cls-1" d="M117.81,15.31c-.47.04-1.97.19-3.33.3-31.18,2.81-60.38,19.63-78.87,45.48-10.3,14.37-16.89,30.68-19.38,47.95-.88,6.03-.99,7.81-.99,15.98s.11,9.95.99,15.98c5.96,41.21,35.3,75.84,75.08,88.67,7.12,2.3,14.63,3.86,23.17,4.81,3.33.36,17.7.36,21.03,0,14.74-1.63,27.23-5.28,39.54-11.56,1.89-.97,2.25-1.22,2-1.44-.17-.13-8.22-10.92-17.87-23.96l-17.55-23.71-21.99-32.54c-12.1-17.89-22.06-32.52-22.14-32.52-.09-.02-.17,14.44-.21,32.09-.06,30.91-.09,32.16-.47,32.89-.56,1.05-.99,1.48-1.89,1.95-.69.34-1.29.41-4.53.41h-3.71l-.99-.62c-.64-.41-1.12-.94-1.44-1.57l-.45-.97.04-43.01.06-43.04.67-.84c.34-.45,1.07-1.03,1.59-1.31.88-.43,1.22-.47,4.93-.47,4.38,0,5.11.17,6.24,1.42.32.34,12.23,18.28,26.48,39.88,14.25,21.6,33.73,51.1,43.3,65.58l17.38,26.32.88-.58c7.79-5.06,16.03-12.27,22.55-19.78,13.88-15.94,22.83-35.38,25.83-56.1.88-6.03.99-7.81.99-15.98s-.11-9.95-.99-15.98c-5.96-41.21-35.3-75.84-75.08-88.67-7.02-2.27-14.48-3.84-22.85-4.78-2.06-.21-16.24-.45-18.02-.28h0ZM162.74,81.69c1.03.51,1.87,1.5,2.17,2.53.17.56.21,12.49.17,39.37l-.06,38.57-6.8-10.43-6.82-10.43v-28.04c0-18.13.09-28.32.21-28.81.34-1.2,1.09-2.15,2.12-2.7.88-.45,1.2-.49,4.57-.49,3.18,0,3.73.04,4.44.43Z"/>
</svg>