<?xml version="1.0" encoding="UTF-8"?>
<svg id="Layer_1" data-name="Layer 1" xmlns="http://www.w3.org/2000/svg" viewBox="0 0 250 250">
  <defs>
    <style>
      .cls-1 {
        fill: #fff;
      }

      .cls-2 {
        fill: #336791;
      }
    </style>
  </defs>
  <rect width="250" height="250"/>
  <g>
    <path d="M232.15,146.99c-1.29-3.92-4.69-6.65-9.07-7.31-2.07-.31-4.44-.18-7.24.4-4.89,1.01-8.51,1.39-11.16,1.47,9.99-16.86,18.1-36.08,22.78-54.18,7.56-29.26,3.52-42.59-1.2-48.62-12.49-15.96-30.71-24.53-52.7-24.8-11.73-.14-22.02,2.17-27.4,3.84-5-.88-10.38-1.38-16.02-1.47-10.58-.17-19.92,2.14-27.9,6.88-4.42-1.49-11.51-3.6-19.71-4.95-19.27-3.16-34.8-.7-46.16,7.33-13.76,9.72-20.13,26.6-18.95,50.18.37,7.49,4.56,30.26,11.16,51.86,3.79,12.42,7.83,22.73,12.01,30.65,5.93,11.23,12.27,17.85,19.39,20.22,3.99,1.33,11.24,2.26,18.87-4.09.97,1.17,2.26,2.33,3.97,3.41,2.17,1.37,4.83,2.49,7.49,3.15,9.57,2.39,18.53,1.79,26.17-1.56.05,1.36.08,2.66.11,3.78.05,1.82.1,3.6.17,5.27.45,11.28,1.22,20.05,3.49,26.19.12.34.29.85.47,1.4,1.13,3.47,3.03,9.29,7.86,13.84,5,4.72,11.04,6.16,16.58,6.16,2.78,0,5.43-.36,7.75-.86,8.28-1.78,17.69-4.48,24.5-14.17,6.43-9.16,9.56-22.96,10.13-44.7.07-.61.14-1.2.21-1.76l.13-1.15,1.52.13.39.03c8.44.38,18.75-1.4,25.09-4.35,5.01-2.32,21.05-10.79,17.27-22.23"/>
    <path class="cls-2" d="M217.72,149.22c-25.09,5.18-26.81-3.32-26.81-3.32,26.49-39.3,37.56-89.2,28.01-101.41-26.07-33.31-71.2-17.56-71.95-17.15l-.24.04c-4.96-1.03-10.5-1.64-16.74-1.74-11.35-.19-19.96,2.98-26.5,7.93,0,0-80.5-33.16-76.76,41.71.8,15.93,22.83,120.52,49.11,88.93,9.61-11.55,18.89-21.32,18.89-21.32,4.61,3.06,10.13,4.62,15.91,4.06l.45-.38c-.14,1.43-.08,2.84.18,4.5-6.77,7.56-4.78,8.89-18.31,11.68-13.7,2.82-5.65,7.85-.4,9.16,6.37,1.59,21.1,3.85,31.05-10.09l-.4,1.59c2.65,2.12,4.51,13.82,4.2,24.42-.31,10.6-.52,17.88,1.57,23.57,2.09,5.69,4.17,18.48,21.97,14.67,14.87-3.19,22.57-11.44,23.64-25.21.76-9.79,2.48-8.34,2.59-17.1l1.38-4.14c1.59-13.27.25-17.55,9.41-15.56l2.23.2c6.74.31,15.56-1.08,20.74-3.49,11.15-5.17,17.76-13.82,6.77-11.55h0"/>
    <path class="cls-1" d="M108.2,82.41c-2.26-.31-4.31-.02-5.34.76-.58.44-.76.95-.81,1.3-.13.93.52,1.96.92,2.49,1.14,1.5,2.79,2.54,4.44,2.77.24.03.47.05.71.05,2.74,0,5.23-2.13,5.45-3.7.27-1.97-2.59-3.28-5.36-3.67M183.1,82.47c-.22-1.54-2.96-1.98-5.57-1.62-2.6.36-5.13,1.54-4.92,3.09.17,1.2,2.34,3.26,4.92,3.26.22,0,.44-.01.66-.05,1.72-.24,2.98-1.33,3.58-1.96.91-.96,1.44-2.03,1.34-2.72"/>
    <path class="cls-1" d="M226.07,148.63c-.96-2.89-4.04-3.82-9.15-2.77-15.19,3.13-20.63.96-22.41-.35,11.81-17.98,21.52-39.73,26.76-60.01,2.48-9.61,3.85-18.53,3.96-25.8.12-7.98-1.24-13.85-4.04-17.43-11.31-14.45-27.9-22.2-47.98-22.41-13.81-.16-25.48,3.38-27.74,4.37-4.76-1.18-9.96-1.91-15.61-2-10.37-.17-19.33,2.31-26.74,7.37-3.22-1.2-11.55-4.06-21.73-5.7-17.61-2.83-31.6-.69-41.58,6.39-11.91,8.44-17.41,23.53-16.35,44.84.36,7.17,4.44,29.23,10.89,50.36,8.49,27.81,17.72,43.55,27.42,46.79,1.14.38,2.45.64,3.89.64,3.54,0,7.88-1.6,12.4-7.03,5.51-6.61,11.21-13.06,17.09-19.34,3.82,2.05,8.01,3.19,12.3,3.31,0,.11.02.22.03.34-.74.88-1.46,1.77-2.17,2.68-2.97,3.77-3.59,4.56-13.15,6.53-2.72.56-9.95,2.05-10.05,7.12-.11,5.53,8.54,7.86,9.53,8.1,3.44.86,6.75,1.28,9.91,1.28,7.68,0,14.44-2.52,19.84-7.41-.17,19.73.66,39.17,3.03,45.09,1.94,4.85,6.68,16.7,21.65,16.7,2.2,0,4.61-.26,7.27-.83,15.62-3.35,22.41-10.25,25.03-25.48,1.4-8.14,3.81-27.56,4.95-37.99,2.39.75,5.47,1.09,8.8,1.09,6.94,0,14.96-1.48,19.98-3.81,5.65-2.62,15.83-9.05,13.98-14.64h0ZM188.86,78.21c-.05,3.08-.47,5.87-.92,8.78-.48,3.14-.98,6.38-1.11,10.31-.12,3.83.35,7.81.82,11.66.93,7.78,1.89,15.78-1.82,23.69-.62-1.09-1.17-2.22-1.64-3.38-.46-1.12-1.46-2.92-2.85-5.4-5.4-9.68-18.04-32.35-11.57-41.6,1.93-2.75,6.82-5.58,19.1-4.06h0ZM173.98,26.09c18,.4,32.23,7.13,42.31,20.01,7.73,9.88-.78,54.83-25.43,93.61-.25-.32-.5-.63-.75-.94l-.31-.39c6.37-10.52,5.12-20.92,4.01-30.15-.46-3.79-.89-7.36-.78-10.72.11-3.56.58-6.61,1.04-9.57.56-3.64,1.13-7.4.97-11.84.12-.47.16-1.02.1-1.67-.4-4.26-5.26-16.99-15.16-28.52-5.42-6.31-13.32-13.36-24.1-18.12,4.64-.96,10.98-1.86,18.09-1.7h0ZM73.27,161.92c-4.98,5.98-8.41,4.84-9.54,4.46-7.36-2.46-15.91-18.02-23.44-42.71-6.52-21.36-10.33-42.83-10.63-48.86-.95-19.05,3.67-32.32,13.72-39.45,16.37-11.61,43.28-4.66,54.09-1.14-.16.15-.32.3-.47.45-17.75,17.92-17.32,48.54-17.28,50.41,0,.72.06,1.74.14,3.15.31,5.15.87,14.73-.64,25.59-1.41,10.09,1.7,19.96,8.53,27.09.7.73,1.44,1.42,2.21,2.08-3.04,3.26-9.65,10.46-16.68,18.92h0ZM92.24,136.62c-5.51-5.74-8.01-13.74-6.86-21.92,1.6-11.47,1.01-21.45.69-26.82-.04-.75-.08-1.41-.11-1.93,2.59-2.3,14.61-8.74,23.17-6.77,3.91.9,6.29,3.56,7.28,8.14,5.13,23.71.68,33.59-2.9,41.53-.74,1.64-1.43,3.18-2.03,4.78l-.46,1.24c-1.17,3.13-2.25,6.03-2.92,8.79-5.85-.02-11.55-2.52-15.88-7.04h0ZM93.14,168.59c-1.71-.43-3.25-1.17-4.15-1.78.75-.35,2.09-.84,4.42-1.32,11.25-2.32,12.99-3.95,16.78-8.77.87-1.11,1.86-2.36,3.22-3.88h0c2.03-2.28,2.96-1.89,4.65-1.19,1.37.57,2.7,2.28,3.24,4.17.26.89.54,2.58-.4,3.9-7.93,11.1-19.48,10.96-27.77,8.88ZM152.02,223.38c-13.76,2.95-18.64-4.07-21.85-12.1-2.07-5.18-3.09-28.55-2.37-54.37,0-.34-.04-.67-.13-.99-.08-.62-.21-1.23-.38-1.82-1.07-3.76-3.69-6.9-6.84-8.2-1.25-.52-3.54-1.47-6.29-.76.59-2.42,1.61-5.15,2.71-8.11l.46-1.24c.52-1.4,1.18-2.86,1.87-4.4,3.74-8.31,8.86-19.69,3.3-45.39-2.08-9.63-9.03-14.33-19.57-13.24-6.32.65-12.1,3.2-14.98,4.66-.62.31-1.19.62-1.72.91.8-9.7,3.85-27.83,15.22-39.3,7.16-7.22,16.7-10.79,28.32-10.6,22.89.37,37.58,12.12,45.86,21.92,7.14,8.44,11.01,16.94,12.55,21.52-11.6-1.18-19.49,1.11-23.5,6.83-8.7,12.44,4.76,36.59,11.23,48.19,1.19,2.13,2.21,3.96,2.53,4.75,2.11,5.11,4.84,8.52,6.83,11.01.61.76,1.2,1.5,1.65,2.15-3.51,1.01-9.83,3.35-9.25,15.06-.46,5.87-3.76,33.36-5.44,43.07-2.21,12.83-6.93,17.61-20.21,20.46h0ZM209.47,157.64c-3.59,1.67-9.61,2.92-15.32,3.19-6.31.3-9.52-.71-10.28-1.32-.35-7.29,2.36-8.05,5.23-8.86.45-.13.89-.25,1.32-.4.26.22.55.43.87.64,5.07,3.35,14.12,3.71,26.89,1.07l.14-.03c-1.72,1.61-4.67,3.77-8.85,5.71h0Z"/>
  </g>
</svg>