<?xml version="1.0" encoding="UTF-8"?>
<svg id="Layer_1" data-name="Layer 1" xmlns="http://www.w3.org/2000/svg" viewBox="0 0 250 250">
  <defs>
    <style>
      .cls-1 {
        fill: #61dafb;
      }
    </style>
  </defs>
  <rect width="250" height="250"/>
  <g>
    <path class="cls-1" d="M235.27,125.02c0-14.61-18.3-28.46-46.35-37.04,6.47-28.59,3.6-51.34-9.08-58.62-2.92-1.71-6.34-2.52-10.07-2.52v10.02c2.07,0,3.73.4,5.12,1.17,6.11,3.51,8.77,16.86,6.7,34.03-.49,4.23-1.3,8.68-2.29,13.22-8.81-2.16-18.43-3.82-28.55-4.9-6.07-8.32-12.36-15.87-18.7-22.48,14.65-13.62,28.41-21.08,37.76-21.08v-10.02c-12.36,0-28.55,8.81-44.91,24.1-16.36-15.19-32.55-23.92-44.91-23.92v10.02c9.31,0,23.11,7.42,37.76,20.95-6.29,6.61-12.59,14.12-18.57,22.43-10.16,1.08-19.78,2.74-28.59,4.94-1.03-4.5-1.8-8.86-2.34-13.04-2.11-17.17.49-30.52,6.56-34.07,1.35-.81,3.1-1.17,5.17-1.17v-10.02c-3.78,0-7.19.81-10.16,2.52-12.63,7.28-15.46,29.98-8.95,58.48-27.96,8.63-46.17,22.43-46.17,37s18.3,28.46,46.35,37.04c-6.47,28.59-3.6,51.34,9.08,58.62,2.92,1.71,6.34,2.52,10.11,2.52,12.36,0,28.55-8.81,44.91-24.1,16.36,15.19,32.55,23.92,44.91,23.92,3.78,0,7.19-.81,10.16-2.52,12.63-7.28,15.46-29.98,8.95-58.48,27.87-8.59,46.08-22.43,46.08-37h0ZM176.74,95.04c-1.66,5.8-3.73,11.78-6.07,17.76-1.84-3.6-3.78-7.19-5.89-10.79-2.07-3.6-4.27-7.1-6.47-10.52,6.38.94,12.54,2.11,18.43,3.55h0ZM156.15,142.91c-3.51,6.07-7.1,11.82-10.83,17.17-6.7.58-13.49.9-20.32.9s-13.58-.31-20.23-.85c-3.73-5.35-7.37-11.06-10.88-17.08-3.42-5.89-6.52-11.87-9.35-17.89,2.79-6.02,5.93-12.05,9.31-17.94,3.51-6.07,7.1-11.82,10.83-17.17,6.7-.58,13.49-.9,20.32-.9s13.58.31,20.23.85c3.73,5.35,7.37,11.06,10.88,17.08,3.42,5.89,6.52,11.87,9.35,17.89-2.83,6.02-5.93,12.05-9.31,17.94h0ZM170.67,137.07c2.43,6.02,4.5,12.05,6.2,17.89-5.89,1.44-12.09,2.65-18.52,3.6,2.2-3.46,4.41-7.01,6.47-10.65,2.07-3.6,4-7.24,5.84-10.83h0ZM125.09,185.04c-4.18-4.32-8.36-9.13-12.5-14.39,4.05.18,8.18.31,12.36.31s8.41-.09,12.5-.31c-4.05,5.26-8.23,10.07-12.36,14.39ZM91.64,158.56c-6.38-.94-12.54-2.11-18.43-3.55,1.66-5.8,3.73-11.78,6.07-17.76,1.84,3.6,3.78,7.19,5.89,10.79s4.27,7.1,6.47,10.52ZM124.87,65.01c4.18,4.32,8.36,9.13,12.5,14.39-4.05-.18-8.18-.31-12.36-.31s-8.41.09-12.5.31c4.05-5.26,8.23-10.07,12.36-14.39ZM91.6,91.49c-2.2,3.46-4.41,7.01-6.47,10.65-2.07,3.6-4,7.19-5.84,10.79-2.43-6.02-4.5-12.05-6.2-17.89,5.89-1.39,12.09-2.61,18.52-3.55h0ZM50.92,147.77c-15.91-6.79-26.21-15.69-26.21-22.75s10.29-16,26.21-22.75c3.87-1.66,8.09-3.15,12.45-4.54,2.56,8.81,5.93,17.98,10.11,27.38-4.14,9.35-7.46,18.48-9.98,27.24-4.45-1.39-8.68-2.92-12.59-4.59h0ZM75.1,212.01c-6.11-3.51-8.77-16.86-6.7-34.03.49-4.23,1.3-8.68,2.29-13.22,8.81,2.16,18.43,3.82,28.55,4.9,6.07,8.32,12.36,15.87,18.7,22.48-14.65,13.62-28.41,21.08-37.76,21.08-2.02-.04-3.73-.45-5.08-1.21h0ZM181.73,177.75c2.11,17.17-.49,30.52-6.56,34.07-1.35.81-3.1,1.17-5.17,1.17-9.31,0-23.11-7.42-37.76-20.95,6.29-6.61,12.59-14.12,18.57-22.43,10.16-1.08,19.78-2.74,28.59-4.94,1.03,4.54,1.84,8.9,2.34,13.08ZM199.04,147.77c-3.87,1.66-8.09,3.15-12.45,4.54-2.56-8.81-5.93-17.98-10.11-27.38,4.14-9.35,7.46-18.48,9.98-27.24,4.45,1.39,8.68,2.92,12.63,4.59,15.91,6.79,26.21,15.69,26.21,22.75-.04,7.06-10.34,16-26.25,22.75h0Z"/>
    <circle class="cls-1" cx="124.95" cy="125.02" r="20.54"/>
  </g>
</svg>