<?xml version="1.0" encoding="UTF-8"?>
<svg id="Layer_1" data-name="Layer 1" xmlns="http://www.w3.org/2000/svg" viewBox="0 0 250 250">
  <defs>
    <style>
      .cls-1 {
        fill: #c00;
        fill-rule: evenodd;
      }
    </style>
  </defs>
  <rect width="250" height="250"/>
  <g>
    <path class="cls-1" d="M27.2,196.56h75.59s-14.45-65.92,33.39-92.62c10.43-5.07,43.63-24.02,97.98,16.17,1.72-1.44,3.35-2.58,3.35-2.58,0,0-49.75-49.66-105.15-44.11-27.84,2.49-62.1,27.84-82.19,61.33-20.09,33.49-22.96,61.81-22.96,61.81Z"/>
    <path class="cls-1" d="M27.2,196.56h75.59s-14.45-65.92,33.39-92.62c10.43-5.07,43.63-24.02,97.98,16.17,1.72-1.44,3.35-2.58,3.35-2.58,0,0-49.75-49.66-105.15-44.11-27.84,2.49-62.1,27.84-82.19,61.33-20.09,33.49-22.96,61.81-22.96,61.81Z"/>
    <path class="cls-1" d="M27.2,196.56h75.59s-14.45-65.92,33.39-92.62c10.43-5.07,43.63-24.02,97.98,16.17,1.72-1.44,3.35-2.58,3.35-2.58,0,0-49.75-49.66-105.15-44.11-27.94,2.49-62.19,27.84-82.28,61.33-20.09,33.49-22.87,61.81-22.87,61.81h0ZM184.69,78.78l.38-6.41c-.86-.48-3.25-1.63-9.28-3.35l-.38,6.31c3.16,1.05,6.22,2.2,9.28,3.44Z"/>
    <path class="cls-1" d="M175.6,99.06l-.38,6.03c3.16.1,6.31.48,9.47,1.15l.38-5.93c-3.25-.67-6.41-1.05-9.47-1.24ZM140.19,69.21h.96l-1.91-5.84c-2.97,0-6.03.19-9.19.57l1.82,5.65c2.77-.29,5.55-.38,8.32-.38ZM144.79,104.42l2.2,6.6c2.77-1.34,5.55-2.49,8.32-3.35l-2.1-6.31c-3.25.96-6.03,2.01-8.42,3.06ZM101.35,79.26l-4.31-6.6c-2.39,1.24-4.88,2.58-7.46,4.11l4.4,6.7c2.49-1.53,4.88-2.97,7.37-4.21h0ZM120.96,122.31l4.59,6.89c1.63-2.39,3.54-4.59,5.65-6.79l-4.31-6.51c-2.2,2.01-4.21,4.21-5.93,6.41h0ZM107.09,153.12l7.75,6.12c.38-3.73,1.05-7.46,2.01-11.19l-6.89-5.45c-1.24,3.54-2.1,7.08-2.87,10.52h0ZM65.18,107.67l-6.79-5.93c-2.49,2.39-4.88,4.78-7.08,7.18l7.37,6.31c2.01-2.58,4.21-5.17,6.51-7.56ZM36.29,150.44l-11-4.02c-1.82,4.11-3.83,8.9-4.78,11.48l11,4.02c1.24-3.25,3.25-7.94,4.78-11.48ZM105.65,177.42c.19,5.07.67,9.19,1.15,12.06l11.48,4.11c-.86-3.73-1.72-7.94-2.3-12.44l-10.33-3.73Z"/>
  </g>
</svg>