<?xml version="1.0" encoding="UTF-8"?>
<svg id="Layer_1" data-name="Layer 1" xmlns="http://www.w3.org/2000/svg" viewBox="0 0 250 250">
  <defs>
    <style>
      .cls-1 {
        fill: #d91404;
      }
    </style>
  </defs>
  <rect width="250" height="250"/>
  <path class="cls-1" d="M79.44,201.94l133.24,18.19c-15.24-25.37-30.09-50.09-45.05-75.01l-88.18,56.83ZM225.27,61.51l-52.29,78.67c-.75,1.13-1.72,2.03-.67,3.77,13.03,21.52,25.96,43.1,38.92,64.66,2.05,3.41,4.11,6.8,6.76,10.07l7.86-157.01-.58-.17ZM47.38,128.61c.61.58,2.13.91,2.84.56,12.5-6.14,25.08-12.15,37.31-18.8,3.99-2.17,7.05-6.05,10.49-9.2,11.37-10.43,22.73-20.88,34.08-31.34.69-.64,1.52-1.26,1.93-2.07,4.08-7.97,8.08-15.98,12.23-24.22-4.95-1.86-9.64-3.68-14.39-5.33-.64-.22-1.66.22-2.36.61-10.99,6.14-22.19,11.95-32.83,18.65-5.32,3.35-9.66,8.29-14.38,12.59-7.6,6.94-15.19,13.89-22.67,20.94-2,1.89-3.79,3.99-5.35,6.27-5.12,7.46-10.09,15.02-15.28,22.8,2.9,3,5.54,5.87,8.37,8.55ZM93.06,118.41l-18.79,79.37,88.27-56.88-69.49-22.49ZM217.64,61.77l-75.02,12.53,25.46,61.93,49.56-74.46ZM94.11,113.04l68.1,22.11c-8.53-20.79-16.78-40.86-25.19-61.35l-42.91,39.24ZM48.32,143.93l-23.84,56.98,45.4-1.34-21.56-55.63ZM70.42,186.35l.56-.12c5.45-22.66,10.98-45.17,16.54-68.72l-36.42,18.93c6.21,16.14,12.83,33.16,19.31,49.91ZM208.48,58.09c-7.25-1.92-14.5-3.85-21.75-5.75-10.42-2.74-20.86-5.45-31.27-8.21-1.3-.35-2.24-.57-3.01,1-3.68,7.54-7.48,15.03-11.22,22.54-.12.23-.09.53-.18,1.12l67.42-10.22v-.47ZM166.43,40.93l59.08,16.34-9.76-27.82-49.23,10.92-.09.55ZM75.43,206.29c-7.32-.84-14.83-.07-22.25.06-6.1.1-12.19.33-18.29.53-.63.02-1.25.15-1.88.82,50.4,4.66,100.8,9.32,151.2,13.98l.1-.67-48.47-6.62c-20.13-2.75-40.23-5.77-60.41-8.1ZM25.48,183.51c6.49-15.07,12.96-30.15,19.48-45.21.65-1.51.6-2.54-.67-3.75-2.73-2.6-5.26-5.39-8.24-8.5-4.03,19.9-7.96,39.3-11.89,58.71l.44.21c.3-.48.67-.94.89-1.46ZM153.49,36.96c10.95-2.83,22.06-5.03,33.11-7.5.72-.16,1.41-.4,2.12-.6l-.11-.54-47.46,6.39c4.46,1.95,7.89,3.4,12.34,2.25Z"/>
</svg>