<?xml version="1.0" encoding="UTF-8"?>
<svg id="Layer_1" data-name="Layer 1" xmlns="http://www.w3.org/2000/svg" xmlns:xlink="http://www.w3.org/1999/xlink" viewBox="0 0 250 250">
  <defs>
    <style>
      .cls-1 {
        fill: none;
      }

      .cls-2 {
        fill: #38bdf8;
        fill-rule: evenodd;
      }

      .cls-3 {
        clip-path: url(#clippath);
      }
    </style>
    <clipPath id="clippath">
      <rect class="cls-1" x="18.12" y="60.88" width="213.75" height="128.25"/>
    </clipPath>
  </defs>
  <rect width="250" height="250"/>
  <g class="cls-3">
    <path class="cls-2" d="M125,60.88c-28.5,0-46.31,14.25-53.44,42.75,10.69-14.25,23.16-19.59,37.41-16.03,8.13,2.03,13.94,7.93,20.37,14.46,10.48,10.64,22.61,22.95,49.1,22.95,28.5,0,46.31-14.25,53.44-42.75-10.69,14.25-23.16,19.59-37.41,16.03-8.13-2.03-13.94-7.93-20.37-14.46-10.48-10.64-22.61-22.95-49.1-22.95ZM71.56,125c-28.5,0-46.31,14.25-53.44,42.75,10.69-14.25,23.16-19.59,37.41-16.03,8.13,2.03,13.94,7.93,20.37,14.46,10.48,10.64,22.61,22.95,49.1,22.95,28.5,0,46.31-14.25,53.44-42.75-10.69,14.25-23.16,19.59-37.41,16.03-8.13-2.03-13.94-7.93-20.37-14.46-10.48-10.64-22.61-22.95-49.1-22.95Z"/>
  </g>
</svg>