<?xml version="1.0" encoding="UTF-8"?>
<svg id="Layer_1" data-name="Layer 1" xmlns="http://www.w3.org/2000/svg" viewBox="0 0 250 250">
  <defs>
    <style>
      .cls-1 {
        fill: #fff;
      }
    </style>
  </defs>
  <rect width="250" height="250"/>
  <path class="cls-1" d="M227.21,114.59c-.54-.85-1.43-1.41-2.43-1.55l-51.38-6.85c-1.85-.24-3.6,1.07-3.85,2.94s1.07,3.6,2.94,3.85l7.3.97v8.7l-17.13-1.84v-17.05l6.27-9.41c.69-1.03.76-2.34.21-3.44-.56-1.1-1.66-1.82-2.9-1.88l-71.93-3.42c-1.15-.01-2.27.49-2.95,1.43l-17.13,23.97c-.07.1-.08.21-.14.31l-48.08-5.15c-.97-.1-1.93.21-2.65.86-.72.65-1.13,1.58-1.13,2.55,0,30.22,35.34,54.8,78.78,54.8h109.6c1.5,0,2.83-.98,3.27-2.42l13.7-44.53c.29-.96.15-2.01-.39-2.85ZM186.65,123.29v-8.42l13.7,1.83v8.16l-13.72-1.47s.02-.06.02-.1ZM128.23,94.09l31.67,1.51-3.5,5.24c-.37.56-.58,1.23-.58,1.9v17.35l-30.84-3.31,3.24-22.69ZM95.88,92.55l25.48,1.21-3.17,22.19s.01.07,0,.1l-36.33-3.89,14.01-19.61ZM208.09,157.54h-107.07c-30.27,0-56.2-12.55-66.79-30.24l177.11,19.68-3.25,10.56ZM213.39,140.32L30.91,120.04c-.73-2.16-1.31-4.36-1.58-6.62l186.2,19.95-2.14,6.95ZM217.58,126.7l-10.38-1.11v-7.98l12.66,1.69-2.28,7.41Z"/>
</svg>